0
SECTION
2
HEADER
9
$INSUNITS
70
4
9
$ACADVER
1
AC1014
9
$HANDSEED
5
FFFF
0
ENDSEC
0
SECTION
2
TABLES
0
TABLE
2
VPORT
5
8
100
AcDbSymbolTable
0
ENDTAB
0
TABLE
2
LTYPE
5
5
100
AcDbSymbolTable
0
LTYPE
5
14
100
AcDbSymbolTableRecord
100
AcDbLinetypeTableRecord
2
BYBLOCK
70
0
0
LTYPE
5
15
100
AcDbSymbolTableRecord
100
AcDbLinetypeTableRecord
2
BYLAYER
70
0
0
ENDTAB
0
TABLE
2
LAYER
5
2
100
AcDbSymbolTable
70
2
0
LAYER
5
50
100
AcDbSymbolTableRecord
100
AcDbLayerTableRecord
2
0
70
0
6
CONTINUOUS
0
ENDTAB
0
TABLE
2
STYLE
5
3
100
AcDbSymbolTable
70
1
0
STYLE
5
11
100
AcDbSymbolTableRecord
100
AcDbTextStyleTableRecord
2
STANDARD
70
0
0
ENDTAB
0
TABLE
2
VIEW
5
6
100
AcDbSymbolTable
70
0
0
ENDTAB
0
TABLE
2
UCS
5
7
100
AcDbSymbolTable
70
0
0
ENDTAB
0
TABLE
2
APPID
5
9
100
AcDbSymbolTable
70
2
0
APPID
5
12
100
AcDbSymbolTableRecord
100
AcDbRegAppTableRecord
2
ACAD
70
0
0
ENDTAB
0
TABLE
2
DIMSTYLE
5
A
100
AcDbSymbolTable
70
1
0
ENDTAB
0
TABLE
2
BLOCK_RECORD
5
1
100
AcDbSymbolTable
70
1
0
BLOCK_RECORD
5
1F
100
AcDbSymbolTableRecord
100
AcDbBlockTableRecord
2
*MODEL_SPACE
0
BLOCK_RECORD
5
1B
100
AcDbSymbolTableRecord
100
AcDbBlockTableRecord
2
*PAPER_SPACE
0
ENDTAB
0
ENDSEC
0
SECTION
2
BLOCKS
0
BLOCK
5
20
100
AcDbEntity
100
AcDbBlockBegin
2
*MODEL_SPACE
0
ENDBLK
5
21
100
AcDbEntity
100
AcDbBlockEnd
0
BLOCK
5
1C
100
AcDbEntity
100
AcDbBlockBegin
2
*PAPER_SPACE
0
ENDBLK
5
1D
100
AcDbEntity
100
AcDbBlockEnd
0
ENDSEC
0
SECTION
2
ENTITIES
0
LWPOLYLINE
5
100
100
AcDbEntity
8
0
100
AcDbPolyline
90
144
70
1
43
0.0
10
9.2499999999999751
20
39.641016151377563
42
-0.41421356237309309
10
10.249999999999977
20
38.641016151377563
10
10.249999999999977
20
34.641016151377571
10
14.749999999999988
20
34.641016151377571
10
14.749999999999986
20
38.641016151377571
42
-0.41421356237309048
10
15.749999999999984
20
39.641016151377571
10
18.999999999999979
20
39.641016151377571
42
-0.41421356237309176
10
19.999999999999979
20
38.641016151377571
10
19.999999999999979
20
34.641016151377571
10
22.374999999999989
20
30.527395483401488
10
25.839101615137757
20
32.527395483401499
42
-0.41421356237309859
10
27.205127018922191
20
32.161370079617051
10
28.955127018922187
20
29.130281166371525
42
-0.41421356237309037
10
28.58910161513775
20
27.764255762587091
10
25.124999999999993
20
25.764255762587084
10
27.375
20
21.867141445557099
10
30.839101615137757
20
23.86714144555711
42
-0.41421356237309503
10
32.205127018922198
20
23.501116041772665
10
33.955127018922191
20
20.470027128527136
42
-0.41421356237309159
10
33.589101615137757
20
19.104001724742702
10
30.124999999999996
20
17.104001724742698
10
32.375000000000014
20
13.206887407712699
10
35.839101615137771
20
15.206887407712703
42
-0.41421356237309798
10
37.205127018922212
20
14.840862003928263
10
38.955127018922198
20
11.809773090682755
42
-0.41421356237309215
10
38.589101615137764
20
10.44374768689832
10
35.125000000000007
20
8.4437476868983126
10
37.375000000000014
20
4.546633369868327
10
40.839101615137771
20
6.5466333698683119
42
-0.41421356237309165
10
42.205127018922198
20
6.1806079660838931
10
43.830127018922205
20
3.3660254037844766
42
-0.41421356237309814
10
43.464101615137771
20
2.0000000000000409
10
40.000000000000014
20
3.3306690738754696e-14
10
37.625000000000021
20
-4.113620667976063
10
41.089101615137771
20
-6.1136206679760523
42
-0.41421356237309892
10
41.455127018922219
20
-7.4796460717604942
10
39.705127018922212
20
-10.510734985006021
42
-0.41421356237309537
10
38.339101615137771
20
-10.876760388790458
10
34.875000000000028
20
-8.8767603887904656
10
32.625000000000021
20
-12.773874705820454
10
36.089101615137778
20
-14.773874705820448
42
-0.41421356237309209
10
36.455127018922219
20
-16.139900109604891
10
34.705127018922227
20
-19.170989022850417
42
-0.41421356237309559
10
33.339101615137793
20
-19.537014426634862
10
29.875000000000028
20
-17.537014426634865
10
27.625000000000021
20
-21.434128743664861
10
31.089101615137778
20
-23.434128743664861
42
-0.41421356237309503
10
31.455127018922223
20
-24.800154147449295
10
29.705127018922237
20
-27.831243060694817
42
-0.4142135623730957
10
28.339101615137807
20
-28.197268464479251
10
24.875000000000043
20
-26.197268464479254
10
22.625000000000036
20
-30.094382781509239
10
26.0891016151378
20
-32.094382781509225
42
-0.41421356237309687
10
26.455127018922234
20
-33.460408185293666
10
24.830127018922241
20
-36.274990747593094
42
-0.41421356237309326
10
23.464101615137803
20
-36.641016151377535
10
20.000000000000039
20
-34.641016151377535
10
15.25
20
-34.641016151377556
10
15.249999999999996
20
-38.641016151377556
42
-0.41421356237309048
10
14.249999999999998
20
-39.641016151377556
10
10.750000000000009
20
-39.641016151377556
42
-0.41421356237309503
10
9.7500000000000089
20
-38.641016151377556
10
9.7500000000000089
20
-34.641016151377556
10
5.25
20
-34.641016151377556
10
5.2499999999999982
20
-38.641016151377549
42
-0.41421356237309404
10
4.25
20
-39.641016151377556
10
0.75000000000000933
20
-39.641016151377556
42
-0.41421356237309437
10
-0.24999999999999112
20
-38.641016151377556
10
-0.24999999999999134
20
-34.641016151377556
10
-4.7500000000000142
20
-34.641016151377556
10
-4.7500000000000178
20
-38.641016151377549
42
-0.41421356237309404
10
-5.7500000000000151
20
-39.641016151377556
10
-9.2499999999999911
20
-39.641016151377556
42
-0.41421356237309309
10
-10.249999999999989
20
-38.641016151377556
10
-10.249999999999989
20
-34.641016151377556
10
-14.75
20
-34.641016151377556
10
-14.750000000000004
20
-38.641016151377556
42
-0.41421356237309048
10
-15.750000000000002
20
-39.641016151377556
10
-18.999999999999989
20
-39.641016151377556
42
-0.41421356237309243
10
-19.999999999999993
20
-38.641016151377556
10
-19.999999999999993
20
-34.641016151377556
10
-22.375000000000004
20
-30.52739548340147
10
-25.83910161513775
20
-32.527395483401477
42
-0.41421356237309503
10
-27.205127018922191
20
-32.161370079617029
10
-28.955127018922191
20
-29.130281166371503
42
-0.41421356237309503
10
-28.58910161513775
20
-27.764255762587066
10
-25.124999999999996
20
-25.764255762587066
10
-27.375000000000004
20
-21.867141445557081
10
-30.839101615137757
20
-23.867141445557081
42
-0.41421356237309037
10
-32.205127018922191
20
-23.501116041772647
10
-33.955127018922191
20
-20.470027128527121
42
-0.41421356237309703
10
-33.589101615137757
20
-19.10400172474268
10
-30.125
20
-17.10400172474268
10
-32.375000000000014
20
-13.206887407712685
10
-35.839101615137764
20
-15.206887407712683
42
-0.41421356237309653
10
-37.205127018922205
20
-14.840862003928246
10
-38.955127018922198
20
-11.809773090682729
42
-0.41421356237309359
10
-38.58910161513775
20
-10.443747686898291
10
-35.125
20
-8.4437476868982948
10
-37.375000000000007
20
-4.5466333698683119
10
-40.839101615137764
20
-6.5466333698683075
42
-0.41421356237308926
10
-42.205127018922191
20
-6.1806079660838753
10
-43.830127018922198
20
-3.3660254037844526
42
-0.41421356237309781
10
-43.464101615137764
20
-2.0000000000000187
10
-40
20
-1.5543122344752192e-14
10
-37.625000000000014
20
4.1136206679760745
10
-41.089101615137771
20
6.1136206679760718
42
-0.4142135623730987
10
-41.455127018922219
20
7.4796460717605129
10
-39.705127018922212
20
10.510734985006042
42
-0.41421356237309304
10
-38.339101615137771
20
10.876760388790478
10
-34.875000000000021
20
8.8767603887904816
10
-32.625000000000014
20
12.773874705820464
10
-36.089101615137771
20
14.773874705820464
42
-0.41421356237309359
10
-36.455127018922212
20
16.139900109604902
10
-34.705127018922212
20
19.170989022850435
42
-0.41421356237309481
10
-33.339101615137778
20
19.537014426634872
10
-29.875000000000021
20
17.537014426634872
10
-27.625000000000011
20
21.434128743664868
10
-31.089101615137771
20
23.434128743664861
42
-0.41421356237309687
10
-31.455127018922209
20
24.800154147449302
10
-29.705127018922219
20
27.83124306069482
42
-0.41421356237309326
10
-28.339101615137782
20
28.197268464479261
10
-24.875000000000025
20
26.197268464479258
10
-22.625000000000021
20
30.094382781509246
10
-26.089101615137778
20
32.094382781509253
42
-0.41421356237309326
10
-26.455127018922219
20
33.460408185293687
10
-24.830127018922219
20
36.274990747593108
42
-0.41421356237309326
10
-23.464101615137785
20
36.641016151377542
10
-20.000000000000028
20
34.641016151377542
10
-15.25000000000002
20
34.641016151377556
10
-15.250000000000021
20
38.641016151377556
42
-0.41421356237309176
10
-14.250000000000018
20
39.641016151377556
10
-10.750000000000032
20
39.641016151377563
42
-0.41421356237309437
10
-9.750000000000032
20
38.641016151377556
10
-9.7500000000000302
20
34.641016151377556
10
-5.2500000000000169
20
34.641016151377556
10
-5.2500000000000169
20
38.641016151377556
42
-0.41421356237309437
10
-4.2500000000000178
20
39.641016151377556
10
-0.75000000000002787
20
39.641016151377556
42
-0.4142135623730932
10
0.24999999999997335
20
38.641016151377556
10
0.24999999999997691
20
34.641016151377563
10
4.7500000000000009
20
34.641016151377563
10
4.7499999999999964
20
38.641016151377563
42
-0.4142135623730947
10
5.7499999999999964
20
39.641016151377563
0
ENDSEC
0
SECTION
2
OBJECTS
0
DICTIONARY
5
C
100
AcDbDictionary
3
ACAD_GROUP
350
D
3
ACAD_MLINESTYLE
350
17
0
DICTIONARY
5
D
100
AcDbDictionary
0
DICTIONARY
5
1A
330
C
100
AcDbDictionary
0
DICTIONARY
5
17
100
AcDbDictionary
0
ENDSEC
0
EOF
